<svg xmlns="http://www.w3.org/2000/svg" viewBox="0 0 1181.64 504.32"><defs><style>.cls-1{fill:none;stroke:#1b4669;stroke-width:2px;}</style></defs><title>Asset 2</title><g id="Layer_2" data-name="Layer 2"><g id="Layer_1-2" data-name="Layer 1"><path class="cls-1" d="M.89,256.2a965,965,0,0,0,144.22,61.93A937.75,937.75,0,0,0,272,351.37c16.22,3,68.11,12.07,139.3,14.38,71.76,2.33,133.68,4.34,212-15.86,38.73-10,96.12-25.29,156.55-66.71,13-8.89,15.44-11.69,109-89.84,50.34-42,38.73-32.14,75.3-62.75S1052.93,56.14,1118.09.78"/><path class="cls-1" d="M.89,303.66c9.25,17.62,28.69,48.71,65,73.32,26.76,18.16,51.25,25,66,29.06,36.37,9.88,64.76,8.74,108.33,6.61,27.45-1.35,63.62-3.11,109-13.21,76-16.91,129.24-46.38,172.4-70.68,31.65-17.82,71.95-47.13,151.27-105,58.3-42.56,89.21-65.12,132.11-99.08C844.54,93.34,894.82,51.91,951.63.78"/><path class="cls-1" d="M.89,323.38c19.33,9.37,43.39,20.1,71.57,30.63a806.23,806.23,0,0,0,86.93,27.19c51.84,12.88,91.8,16.73,130.58,20.3,17.83,1.64,72.75,6.3,148.21,4.6,64.84-1.47,111.22-2.52,172.71-14.56,77-15.07,132.73-38.57,175-56.67,49.19-21.06,93-40.15,143.22-77.36,36.26-26.88,53-46.28,90.38-83.48,36.49-36.32,90.24-87.19,161.39-145.52"/><path class="cls-1" d="M.89,403.65A310.45,310.45,0,0,0,61.2,435c31.6,12.25,59.32,17,83.17,19.65,173.62,19.53,309.16-3.08,309.16-3.08C563.94,433.19,641,402.78,736,365.33c116.16-45.81,197.84-91,218.78-102.71a1679.1,1679.1,0,0,0,226.13-152"/><path class="cls-1" d="M.89,503q37.16.71,75.69,0c84.11-1.56,219.07-4.79,381.06-43.13,0,0,188.25-44.57,385.15-146.2,26.57-13.71,83.21-44.1,102-54.19,97.73-52.44,137.29-75.17,170.13-94.78,28.08-16.76,50.87-31,66-40.58"/><path class="cls-1" d="M.89,459.52a288.87,288.87,0,0,0,32-1.12,329.37,329.37,0,0,0,38.29-6c27.63-5.52,33.24-5.06,62.59-10,36-6.06,63.21-12.77,89.16-19.15,27.9-6.86,82.07-21,149.18-44.58,37.38-13.13,81.79-28.73,137.74-55.44,53.07-25.35,53.52-30.61,137.46-72.59,46.17-23.09,69.25-34.63,93.45-44.87,42.57-18,60.26-22.24,92.88-41.44,10.2-6,10.26-6.64,57.73-40,52.39-36.83,55.83-38.51,79.44-55.44,21.5-15.4,52.52-38.28,89.74-68.1"/><path class="cls-1" d="M.89,416.14c13.59,2.21,34,5.45,59.09,9.13,13.34,2,26.07,3.77,31.05,4.44,47.28,6.4,97.64,6.12,112.22,6,29.4-.24,75.87-.81,135.71-10.7,53.42-8.82,92.86-21,128.41-32.1,39.21-12.25,67.43-23.31,99.17-35.75,37-14.5,44.39-18.65,138.06-58.2,31.7-13.39,47.55-20.08,69.68-29.23,89.78-37.13,95.17-37.16,125.27-51.41,53.4-25.29,91.17-51.09,111.7-65.25,15.18-10.46,60.34-42.32,112.48-92.39,23.75-22.8,42.86-43.54,57.16-59.9"/></g></g></svg>