<?xml version="1.0" encoding="utf-8"?>
<!-- Generator: Adobe Illustrator 19.2.0, SVG Export Plug-In . SVG Version: 6.00 Build 0)  -->
<svg version="1.1" id="Layer_1" xmlns="http://www.w3.org/2000/svg" xmlns:xlink="http://www.w3.org/1999/xlink" x="0px" y="0px"
	 viewBox="0 0 960 560" style="enable-background:new 0 0 960 560;" xml:space="preserve">
<style type="text/css">
	.st0{fill:#FEFEFE;}
	.st1{fill:#807E44;}
	.st2{fill:#817F46;}
	.st3{fill:#878550;}
	.st4{fill:#A19F74;}
	.st5{fill:#969565;}
	.st6{fill:#A9A881;}
	.st7{fill:#EAEAE0;}
	.st8{fill:#E6E6DB;}
</style>
<path class="st1" d="M641,283c-4.1,6.8-6.9,14.1-6.5,22.3c0.5,11.6,0.8,23.1-0.6,34.7c-0.6,0.6-1.2,0.6-1.8,0
	c-0.4-12.6-1.9-25.1-2.2-37.6c-0.2-8.1-0.9-16.3-4.7-23.8c-1.6-3.2-3.8-4.6-7.5-4.5c-4.5,0.1-9.1,1.8-14.1-0.8
	c3.4-2.7,7-1.7,10.3-1.8c7.7-0.2,8.2-0.4,10.8-7.6c3.3-9.2,5.9-18.2,4.2-28.5c-1.5-9.3,0.2-19.2,0.7-28.8c0.1-1.3-0.2-3.4,2.1-3.3
	c1.7,0.1,2.2,1.8,2.5,3.3c1.2,6.8-0.8,13.6,0,20.4c1.2,10.8-0.1,22,3.9,32.5c0.9,2.3,0.7,5,3,6.6C641,271.7,641,277.3,641,283z"/>
<path class="st2" d="M321,225c2.1,0.2,3.7-0.6,4.4-2.5c2-5.6,4.5-10.9,3.8-17.3c-0.7-6.2-0.1-12.6,0-18.9c0-1.2-0.3-3.1,1.6-3
	c1.8,0.1,1.7,2.1,1.6,3.2c-0.4,6.7,0,13.3,0.5,19.9c0.1,1.2,0,2.3,0.1,3.5c0.8,12,3.2,14.2,15.1,14.2c2.7,0,5.3,0.1,8,0.3
	c0.9,0.1,2.1,0.4,1.8,1.8c-0.3,1.1-1.3,0.8-2.1,0.8c-3.2,0-6.4,0.4-9.4-0.3c-5.1-1.1-7.9,1.3-10.2,5.2c-1.6,1-1.2,2.9-1.8,4.3
	c-3.7,10.5,0.1,21.5-3,32.1c-0.4-5.4-1-10.8-1.3-16.2c-0.3-6.5-0.3-13-2-19.3c-0.9-3.4-2-7-6.9-5.9C321,226.3,321,225.7,321,225z"/>
<path class="st2" d="M375.1,172.2c4-3.4,8.6-6.4,6.2-12.9c-0.3-0.9,0.4-2.2,0.7-3.3c1.3,0,2.7,0,4,0c0.2,2.3,0.1,4.7,0.7,6.9
	c1.7,6.4,4.6,9.3,10.4,9.2c6.3-0.1,12.6,0.1,18.8,0.2c-0.4,2-2,1.2-3.2,1.2c-5.1,0.1-10.3,0-15.4,0c-1.6,0-3.4-0.4-4.4,1.5
	c-5,3.7-8,8.1-6.9,14.8c0.4,2.6,0.5,5.5-1.3,9.2c-1.4-5.7-1.9-10.4-2.5-15.2c-0.5-4.2-1.7-8.2-6.3-9.9
	C375.3,173.5,374.8,173.1,375.1,172.2z"/>
<path class="st3" d="M393,175c0.4-2.8,2.6-1.9,4.3-2c6.2-0.4,12.5,0.9,18.6-0.8c1,0,2-0.4,3,1.5c-6.8,0-13.3,0.1-19.8,0
	C396.9,173.7,394.9,173.7,393,175z"/>
<path class="st4" d="M375.1,172.2c0.3,0.5,0.6,1.1,0.9,1.6c-4.4,0-8.9,0-13.3,0C366.6,171.4,370.9,172.5,375.1,172.2z"/>
<path class="st5" d="M334.1,236.2c-0.2-4.3-0.2-4.3,1.8-4.3C335.7,233.5,335.2,235,334.1,236.2z"/>
<path class="st6" d="M632.1,339.9c0.6,0,1.2,0,1.8,0c0.1,1,0.4,2.4-0.6,2.5C631.4,342.6,632.1,341,632.1,339.9z"/>
<path class="st7" d="M635.9,287.6c-0.3-3.3-0.6-6.5,3.3-9C638,282.1,636.9,284.8,635.9,287.6z"/>
<path class="st8" d="M629.2,275c1.2,1.5,1.7,2.8,0.9,4.3c-0.2,0.4-0.8,0.6-1.2,0C628,278,627.3,276.7,629.2,275z"/>
</svg>
