<?xml version="1.0" encoding="utf-8"?>
<!-- Generator: Adobe Illustrator 19.2.0, SVG Export Plug-In . SVG Version: 6.00 Build 0)  -->
<svg version="1.1" id="Layer_1" xmlns="http://www.w3.org/2000/svg" xmlns:xlink="http://www.w3.org/1999/xlink" x="0px" y="0px"
	 viewBox="0 0 960 560" style="enable-background:new 0 0 960 560;" xml:space="preserve">
<style type="text/css">
	.st0{fill:#FEFEFE;}
	.st1{fill:#807E44;}
	.st2{fill:#FEFEFD;}
	.st3{fill:#817F46;}
	.st4{fill:#888651;}
	.st5{fill:#A9A781;}
	.st6{fill:#F5F5F0;}
	.st7{fill:#EEEEE6;}
	.st8{fill:#D8D7C6;}
	.st9{fill:#EEEEE7;}
</style>

<path class="st1" d="M641,260c-5.5,1.4-11.1,2.4-16.4,4.2c-7.5,2.5-10.2,7.7-10.1,15.6c0.2,13.1,0.8,26.3-1.3,39.4
	c-0.4,2.5-0.6,5.6-4.2,4.9c-3.1-0.7-2.9-3.4-2.4-6.1c1.3-6.7,1.9-13.5,0.9-20.4c-1-7,0.5-13.9,0.5-20.9c0-1.8,2.1-7.3-3.8-3.6
	c-0.4,0.2-1.6-0.4-2.2-0.9c-17-12.6-35.9-17.3-57.2-15.6c-15.5,1.3-31.3,0.9-46.8-1.5c-0.9-0.1-2,0.3-2.7-1.3c4.9-1.6,9.9-2,15-1.8
	c7.3,0.2,14.6,0.2,21.7-2.3c1.2-0.4,2.6-0.5,3.9-0.4c17.2,1.5,34.2-0.4,51.1-3.3c5.8-1,11.2-3.2,16.1-6.4c3.1-2,4.6-4.4,4.3-8.3
	c-0.4-6-0.3-12-0.4-18c0-1.5,0.1-3,0.4-4.5c0.2-0.9,0.8-2.2,1.5-2.3c1.4-0.2,2,1.2,2.1,2.3c0.5,2.8,0.8,5.6,0.9,8.4
	c0.2,2.7,0,5.3,0,8c0,9.5,1.1,11.3,10.2,14.5c6.3,2.2,12.6,4.2,18.9,6.2C641,250.7,641,255.3,641,260z"/>
<path class="st1" d="M330,156c2.2,2.9,2.3,6.2,1.9,9.5c-1.1,11.2,0.3,22.3,0.9,33.4c0.3,5.2,2.2,10.4,3.8,15.4
	c1.3,4.1,4.3,5.9,8.8,5.8c7.6-0.2,15.3-0.6,22.9,0.7c1.6,0.3,3.8,0.3,3.3,2.6c-0.4,1.8-2.3,1.7-3.8,1.4c-7.7-1.8-15.7,0.8-23.3-0.9
	c-4.2-0.9-2.4,2.7-3.6,4.1c-3.9,4.5-5.6,10.1-7.5,15.6c-1.3,3.9-1.6,7.7-1.6,11.8c0,11.6,0.9,23.3-1,35.6c-1.5-2.9-1.7-5.3-1.8-7.6
	c-0.8-14.9-0.9-29.8-3-44.6c-0.6-4.7-1.9-9.1-5-12.8c0-3,0-6,0-9c1.2-5,2.4-10,3.8-14.9c0.5-1.6,0.9-3.3,0.6-4.9
	c-1.7-9.9,0.3-19.8-0.1-29.7c-0.2-3.9-1.2-8.4,2.7-11.5C328.7,156,329.3,156,330,156z"/>
<path class="st2" d="M328,156c-1.2,2.3-1.3,4.9-1.1,7.3c0.7,10.2-1.4,20.4,0.1,30.7c1.3,8.3-2.7,15.7-6,23c0-18.7,0.2-37.4-0.1-56.1
	c-0.1-4.4,1.1-5.7,5.2-4.9C326.7,156.1,327.3,156,328,156z"/>
<path class="st3" d="M385,184.2c3.8-3.9,4.7-8.9,5-13.9c0.3-4.7,0-9.5-0.1-14.3c1,0,2,0,3,0c-0.1,7.4-0.6,14.9,1.7,22.2
	c1.1,3.5,2.6,5.2,6.6,5.1c4.2-0.1,8.6-0.7,12.6,2.5c-4.1,0-8.2,0.2-12.3-0.1c-2.1-0.1-3.2,0.4-4.3,2.2c-2.9,4.8-4.7,9.7-4.4,15.5
	c0.2,4.1,0,8.3-0.1,12.4c-2.6-0.4-0.5-2.9-1.7-3.9c-0.4-5.4-0.7-10.9-1.2-16.3c-0.4-3.6-0.8-7.3-3.9-9.9
	C385.3,185.5,384.8,185.1,385,184.2z"/>
<path class="st4" d="M385,184.2c0.3,0.5,0.6,1.1,0.9,1.6c-2.7,0-5.5,0-8.8,0C379.8,183.1,382.6,184.5,385,184.2z"/>
<path class="st5" d="M391.1,212c0.6,1.3,1.1,2.6,1.7,3.9c0.2,1.5,0.4,3-0.6,4.6C390,217.8,391.2,214.8,391.1,212z"/>
<path class="st6" d="M581.5,257.4c9.6-0.7,16.2,2,18.8,8.3C594.2,261.7,588.1,260.2,581.5,257.4z"/>
<path class="st7" d="M597.1,248.7c2.1-1.8,4.1-3.7,7-2.7c0.7,0.2,1.5,1,1.6,1.6c0.3,1-0.8,1.3-1.5,1.5
	C601.9,249.8,599.6,250.8,597.1,248.7z"/>
<path class="st8" d="M332,238.2c0.5-2.2,1-4.5,1.4-6.7C334.9,234.2,334.1,236.4,332,238.2z"/>
<path class="st9" d="M326.3,225.5c2.3,0.9,1.6,2.6,1.7,4.5C325.6,228.8,325.4,227.4,326.3,225.5z"/>
</svg>
