<svg  xmlns="http://www.w3.org/2000/svg"
     x="0px" y="0px" viewBox="20 80 400 30"
     style="enable-background:new 0 0 4.3 191.9;" xml:space="">

  <title>evolve-logo</title>
  <g fill="#fff">
    <path class="st0" d="M83.1,99.4c-0.9-3.4-1.8-6.8-2.7-10.2c-0.1-0.7-0.6-1.2-1.2-1.3c-0.6,0-1.2,0.4-1.4,0.9
		c-0.9,1.4-1.4,3-2.2,4.5s-1.3,1.5-2.4,0.3c-0.2-0.2-0.4-0.4-0.6-0.6c-1.5-1.8-2.7-3.9-3.6-6c-0.2-0.6-0.8-0.9-1.4-0.7
		c0,0,0,0-0.1,0c-0.7,0.2-0.6,0.8-0.5,1.3c0.1,0.9,0.3,1.7,0.5,2.6c0.4,3.6,0.5,7.3,0.3,10.9c0,0.6-0.2,1.5,0.7,1.5
		c0.8,0,1.4-0.6,1.5-1.3c0.2-1.1,0.2-2.1,0.1-3.2c-0.2-1.3-0.1-2.6,0.2-3.8c0.7,0.6,1.4,1.3,1.9,2.2c1.2,1.6,2,1.6,3.4,0.2
		c1-1,1.8-2.3,2.4-3.6c0.2-0.3,0.2-0.8,0.7-0.7c0.3,0.1,0.5,0.5,0.4,0.8c0.3,1.4,0.6,2.9,1,4.3c0.4,1.8,0.6,3.5,1.8,5
		c0.2,0.5,0.8,0.9,1.4,0.7c0.6-0.3,0.9-1,0.7-1.6C83.6,100.8,83.3,100.1,83.1,99.4z"></path>
    <path class="st0" d="M99.3,101.2c-0.9-0.9-1.5-2.1-1.8-3.3c-0.5-1.6-1-3.2-1.4-4.8c-0.1-0.7-0.8-1.2-1.5-1h-0.1
		c-0.7,0-1.2,0.6-1.2,1.2c0,0.1,0,0.1,0,0.2c0,1.9-0.7,3.8-2,5.2c-1.1,1.4-2,1.2-2.6-0.5c-0.7-2.3-0.8-4.8-0.2-7.2
		c0.2-0.6-0.1-1.2-0.7-1.4c-0.1,0-0.3-0.1-0.4-0.1c-0.5-0.2-1.1,0-1.3,0.5C86,90.1,86,90.3,86,90.5c-0.2,1.6-0.4,3.2-0.5,4.4
		c-0.1,1.8,0.2,3.6,0.9,5.3c0.8,1.8,2.9,2.5,4.6,1.7c0.5-0.2,0.9-0.6,1.2-1c0.4-0.5,0.7-1,1-1.5s0.5-1.5,1.2-1.5s0.8,1,1,1.7
		c0.4,1.2,0.9,2.4,1.5,3.5c0.7,0.8,1.4,0.6,2.1,0c0.5-0.3,0.7-1,0.4-1.6C99.5,101.4,99.4,101.3,99.3,101.2z"></path>
    <path class="st0" d="M332.7,92.1c-1.1,0.9-2.4,0.6-3.7,0.7c-0.5,0-1,0-1.4,0c-1.6,0-1.7-0.2-1.9-1.8c-0.2-1.4-0.1-2.9,0.2-4.3
		c0.2-0.7-0.1-1.4-0.7-1.7c-0.5-0.4-1.3-0.6-1.9-0.3c-0.7,0.3-0.4,1-0.4,1.6c0.1,1.4,0.4,2.8,0.7,4.1c0.2,1.4,0.2,1.5-1.2,1.5
		c-1.2,0-1.8,0.8-1.4,1.7c0.2,0.4,0.6,0.8,1.1,0.9c1.4,0.5,1.8,1.5,1.9,2.9c0,0.8,0.1,1.7,0.2,2.5c0,0.8,0.2,1.7,0.5,2.4
		c0.2,0.7,1,1.2,1.7,1c0.1,0,0.1,0,0.2-0.1c1-0.4,0.9-1.2,0.5-2c-0.6-1.3-1-2.7-1-4.1c-0.1-1.5,0-1.6,1.6-1.6c1.5,0.2,3,0,4.5-0.5
		c0.8-0.2,1.5-0.8,1.8-1.6c0.2-0.4,0.1-0.8-0.2-1.1C333.4,92,333,91.9,332.7,92.1z"></path>
    <path class="st0" d="M180.4,92.2c-1.1,0.9-2.4,0.6-3.7,0.7c-0.5,0-1,0-1.6,0c-1.2,0.1-1.6-0.4-1.7-1.6c-0.2-1.5-0.2-3.1,0.2-4.6
		c0.2-0.6-0.2-1.3-0.8-1.6c-0.5-0.4-1.3-0.6-1.9-0.3c-0.7,0.3-0.4,1-0.4,1.5c0.1,1.4,0.4,2.8,0.7,4.2c0.2,1.4,0.1,1.5-1.3,1.5
		c-0.7-0.1-1.4,0.3-1.5,1c0,0.1,0,0.2,0,0.3c0,0.7,0.6,1.3,1.3,1.4c1.3,0.4,1.6,1.4,1.8,2.5c0.1,0.5,0,1,0.1,1.4
		c0.2,1.3,0,2.6,0.6,3.8c0.3,0.8,1.1,1.2,1.8,0.9c0.1,0,0.1,0,0.2-0.1c0.6-0.3,0.9-1,0.6-1.7c0-0.1-0.1-0.2-0.2-0.3
		c-0.6-1.3-1-2.7-1.1-4.1c-0.1-1.5,0-1.7,1.5-1.7c1.5,0.2,3,0,4.5-0.5c0.9-0.2,1.6-0.9,1.9-1.7c0.2-0.4,0.1-0.8-0.2-1.1
		C181,92,180.7,92,180.4,92.2z"></path>
    <path class="st0" d="M265,102.1L265,102.1c-1.1-0.6-1.2-1.6-1.4-2.6c-0.4-1.8-0.5-3.6-1.1-5.4c-0.2-0.9-0.7-1.6-1.5-2.1
		c-0.4-0.4-1-0.4-1.4,0c-0.2,0.2-0.3,0.4-0.3,0.6c-0.2,0.9-0.6,1.7-1.1,2.4c-0.4,0.5-0.7,1.1-1.4,0.9c-0.7-0.2-0.6-0.9-0.7-1.4
		c-0.2-1.1-0.2-2.2-0.5-3.3c0-0.7-0.6-1.2-1.2-1.1c-0.2,0-0.3,0.1-0.5,0.1c-0.9,0.3-1.7,1.5-1.3,2.1c1.1,2,1.6,4.2,1.5,6.4
		c-0.1,0.8,0.4,1.6,1.2,1.9c0.8,0.1,1.6-0.2,2-0.9c0.5-0.7,0.8-1.5,1.1-2.4c0.3-0.6,0.5-1.7,1.4-1.6c0.9,0.2,1.1,1.2,1.2,2
		c0,0.2,0,0.5,0.1,0.7c0.1,1.1,0.2,2.2,0.4,3.3c0.2,1.1,1.2,2,2.3,2.1c0.5,0.1,1-0.2,1.3-0.7C265.4,102.8,265.3,102.3,265,102.1z"></path>
    <path class="st0" d="M364,102.2l-0.1-0.1c-1.2-0.6-1.3-1.8-1.5-2.8c-0.3-1.7-0.6-3.4-1-5c-0.1-0.9-0.6-1.7-1.4-2.1
		c-1-0.5-1.5-0.4-1.8,0.6s-0.7,1.9-1.4,2.6c-0.2,0.4-0.6,0.6-1.1,0.6c-0.4-0.2-0.7-0.6-0.6-1.1c-0.2-1.2-0.3-2.5-0.5-3.7
		c0-0.7-0.5-1.2-1.2-1.2c-0.2,0-0.4,0-0.5,0.1c-0.9,0.3-1.7,1.4-1.3,2.1c1.1,2,1.6,4.2,1.5,6.4c-0.1,0.9,0.5,1.7,1.3,1.9
		c0.8,0.1,1.6-0.3,2-1c0.5-0.7,0.7-1.6,1.1-2.4c0.3-0.6,0.5-1.6,1.3-1.5c0.9,0.1,1,1.1,1.2,1.9c0,0.2,0,0.5,0.1,0.7
		c0.1,1.2,0.2,2.3,0.4,3.4c0.2,1.1,1.2,2,2.3,2.1c0.5,0.1,1-0.2,1.3-0.7C364.4,102.9,364.3,102.4,364,102.2z"></path>
    <path class="st0" d="M219.1,102c-1-0.5-1.2-1.5-1.4-2.5c-0.3-1.7-0.6-3.5-1-5.2c-0.1-0.9-0.6-1.7-1.3-2.2c-1-0.6-1.6-0.4-2,0.7
		c-0.2,0.8-0.6,1.5-1,2.2c-0.4,0.5-0.7,1.1-1.4,1c-0.7-0.2-0.6-0.9-0.7-1.5c-0.2-1.1-0.3-2.1-0.4-3.2c0-0.7-0.5-1.2-1.1-1.2
		c-0.2,0-0.4,0-0.5,0.1c-0.9,0.3-1.8,1.4-1.4,2.1c1.1,2.1,1.6,4.4,1.6,6.7c0,0.8,0.5,1.5,1.2,1.7c0.7,0.1,1.5-0.2,1.9-0.8
		c0.5-0.7,0.9-1.5,1.2-2.3c0.3-0.7,0.5-1.8,1.4-1.7s1.2,1.3,1.3,2.2c0,0.2,0,0.5,0,0.7c0.1,1.1,0.2,2.2,0.5,3.3
		c0.3,1.1,1.3,1.9,2.4,1.9c0.5,0,1-0.3,1.1-0.8C219.6,102.7,219.4,102.2,219.1,102z"></path>
    <path class="st0" d="M105.9,91.9c0.6-0.2,1-0.1,1.1,0.5c0.1,1.3,0.8,0.8,1.3,0.5c0.9-0.5,1.2-1.7,0.6-2.6c-0.1-0.2-0.3-0.3-0.4-0.5
		c-0.7-0.6-1.7-0.9-2.6-0.6c-1.7,0.6-3.4,1.4-5,2.3c-0.6,0.3-0.9,0.9-0.9,1.6c0,1.1,0.5,2.1,1.4,2.6c1.2,0.7,2.2,1.6,3.1,2.6
		c0.5,0.7,1.6,1.4,1,2.3c-0.7,0.9-1.8,1.3-2.8,1.2c-0.3,0-0.6-0.1-0.9-0.2c-0.7-0.2-1.4-0.3-1.7,0.6c-0.2,0.7,0.3,1.5,1,1.7
		c0.3,0.1,0.7,0.2,1,0.2c1.8-0.1,3.6-0.7,5.2-1.7c1.2-0.5,1.7-1.9,1.1-3.1c-0.1-0.2-0.3-0.5-0.5-0.7c-0.9-1.2-1.9-2.2-3-3.3
		C102.9,93.3,103,92.9,105.9,91.9z"></path>
    <path class="st0" d="M271.9,92l0.1-0.1c0.3-0.2,0.7-0.1,0.9,0.2c0.1,0.1,0.1,0.3,0.1,0.4c0.1,1.2,0.7,0.8,1.3,0.5
		c0.9-0.5,1.2-1.6,0.7-2.5c-0.1-0.2-0.2-0.3-0.4-0.5c-0.7-0.7-1.6-0.9-2.5-0.7c-1.8,0.6-3.5,1.4-5.1,2.3c-0.6,0.3-0.9,0.9-0.9,1.6
		c0,1.1,0.6,2.2,1.7,2.7c1.5,0.9,2.8,2.2,3.8,3.6c0.4,0.4,0.5,1,0.1,1.4c-0.1,0.2-0.4,0.3-0.6,0.3c-1,0.6-2.1,0.8-3.2,0.5
		c-0.5-0.3-1.2-0.2-1.6,0.3l-0.1,0.1c-0.2,0.7,0.1,1.4,0.8,1.7c0.4,0.2,0.9,0.3,1.4,0.3c1.8-0.1,3.4-0.7,4.9-1.6
		c1.2-0.5,1.7-1.9,1.2-3.1c-0.1-0.3-0.3-0.5-0.5-0.7c-0.9-1.1-1.9-2.2-2.9-3.2C268.4,93,269.2,93.5,271.9,92z"></path>
    <path class="st0" d="M131.5,92.5c0.4-0.9,0-2-0.9-2.4c-0.3-0.1-0.7-0.2-1.1-0.1c-0.4,0-0.9,0.1-1.3,0.2c-3.3,0.3-6.4,1.3-9.2,3
		c-2.3,1.2-3.2,4.1-1.9,6.4c0.3,0.5,0.6,1,1.1,1.3c1.6,1.4,3.5,2.3,5.6,2.5c1.8,0,3.6-0.4,5.2-1.3c0.4-0.1,0.6-0.5,0.5-0.8
		c-0.1-0.4-0.5-0.6-0.8-0.5h-0.1c-0.5,0-1,0.2-1.5,0.3c-2.5,1-4.6,0.2-6.6-1.2s-2.1-3.5,0-4.9c2.3-1.6,4.9-2.6,7.6-2.9
		c0.8-0.1,1.5-0.1,1.9,0.8c0.2,0.4,0.6,0.6,1,0.4C131.2,93.1,131.4,92.9,131.5,92.5z"></path>
    <path class="st0" d="M167.7,91.9c-1.2-0.9-3-0.6-3.9,0.7c-0.2,0.3-0.4,0.6-0.4,1c-0.1,0.4-0.2,0.8-0.3,1.2c0,0.5-0.3,0.9-0.8,1
		c-0.6,0-0.6-0.6-0.7-1c0-1-0.5-2-1.2-2.6c-0.5-0.5-1.2-0.7-1.8-0.3c-0.5,0.4-0.7,1.2-0.3,1.7c1.2,2.3,2.1,4.7,2.8,7.2
		c0.1,0.5,0.6,0.8,1.1,0.8s1-0.2,1.2-0.7c0.2-0.7,0.4-1.4,0.6-2.1c0.1-1.2,0.4-2.4,0.9-3.5c0.5-1,1-1.6,2.2-1.2
		c0.9,0.3,1.2-0.2,1.3-1.1C168.4,92.7,168.1,92.2,167.7,91.9z"></path>
    <path class="st0" d="M302.3,92.2c-0.8-0.7-1.9-1-2.9-0.7c-0.8,0-1.5,0.6-1.7,1.4c-0.2,0.7-0.3,1.4-0.5,2.1c0,0.3-0.3,0.6-0.7,0.6
		c-0.3,0-0.6-0.3-0.6-0.6c-0.1-0.4-0.1-0.8-0.2-1.2c-0.2-0.9-0.8-1.7-1.6-2.1c-0.5-0.4-1.2-0.2-1.6,0.3c-0.2,0.2-0.2,0.5-0.2,0.8
		c0,0.4,0.1,0.8,0.3,1.1c1.2,2.1,2,4.3,2.5,6.6c0.1,0.6,0.6,1,1.2,1s1.1-0.4,1.3-0.9c0.2-0.7,0.4-1.4,0.5-2.1
		c0.1-1.1,0.4-2.1,0.8-3.1c0.5-1,1-1.7,2.3-1.2c0.4,0.2,1,0,1.2-0.4c0.1-0.2,0.1-0.4,0.1-0.6C302.5,92.8,302.4,92.5,302.3,92.2z"></path>
    <path class="st0" d="M250.8,100.7c-0.6-0.7-0.8-1.6-0.7-2.5c0-1.8,0-3.5,0-5.3c0.2-2.4,0.2-4.9,0-7.3c-0.1-0.6-0.2-1.3-1.1-1.3
		c-0.7,0-1.2,0.6-1.2,1.2c0,0.1,0,0.2,0,0.3c0.1,2,0.2,4.1,0.1,6.1c-0.2,3.1-0.4,6.2-0.6,9.3c-0.2,0.5,0.1,1.1,0.6,1.3
		c0.9,0.3,1.9,0.1,2.6-0.5c0.4-0.2,0.6-0.7,0.4-1.1C250.9,100.9,250.9,100.8,250.8,100.7z"></path>
    <path class="st0" d="M291.1,100.2c-1.3-1.4-1.8-3.4-1.5-5.2c0.2-0.9,0.3-1.8,0.3-2.7c0-0.9-0.8-1.7-1.7-1.7c0,0,0,0-0.1,0
		c-1.1,0.1-0.8,0.9-0.8,1.6c0,0.9,0,1.8,0,3.1c0,0.9,0.1,2.1,0.2,3.3c0.1,1.2,0.7,2.4,1.5,3.3c0.7,0.6,1.8,0.6,2.5,0.1
		C292.4,101,291.4,100.6,291.1,100.2z"></path>
    <path class="st0" d="M337.9,100.2c-1.3-1.4-1.8-3.4-1.4-5.2c0.2-0.9,0.3-1.8,0.3-2.7c0-0.9-0.8-1.7-1.7-1.7c-1.2,0-0.9,0.9-0.9,1.6
		c0,0.9,0,1.8,0,2.8c0.1,1.2,0.1,2.5,0.2,3.7s0.7,2.3,1.5,3.2c0.7,0.6,1.8,0.6,2.5,0.1C339.2,101,338.2,100.6,337.9,100.2z"></path>
    <path class="st0" d="M114.3,100.1c-1.3-1.5-1.8-3.5-1.4-5.4c0.2-0.9,0.3-1.7,0.3-2.6c-0.1-0.9-0.8-1.6-1.7-1.6
		c-1.1,0-0.8,1.1-0.8,1.7c0,0.9,0,2,0,3s0,1.9,0,2.9c0,1.3,0.6,2.6,1.5,3.6c0.8,0.7,1.9,0.7,2.7,0.1
		C115.6,101,114.7,100.6,114.3,100.1z"></path>
    <path class="st0" d="M135.5,99.2c-0.5-0.4-1.1-0.3-1.5,0.1c-0.1,0.1-0.1,0.1-0.1,0.2c-1.2,2.2-2.3,4.6-3.2,7
		c-0.2,0.4-0.1,0.8,0.3,1c0.1,0.1,0.2,0.1,0.3,0.1c0.6,0.1,1.1-0.3,1.3-0.8c1.3-2,2-4.3,3.4-6.3c0.3-0.4,0.2-0.9-0.2-1.2
		C135.7,99.3,135.6,99.3,135.5,99.2z"></path>
    <path class="st0" d="M113.1,86.8c1-0.4,1.1-1.2,0.2-1.9c-0.8-0.6-1.8-1-2.8-1.1c-1.2,0-1.7,0.4-1.5,1.1
		C109.8,86.5,111.5,87.3,113.1,86.8z"></path>
    <path class="st0" d="M335.6,87c0.4,0,0.9-0.1,1.3-0.3c0.6-0.4,0.9-1,0.2-1.6c-1-0.9-2.4-1.4-3.8-1.3c-0.4-0.1-0.8,0.2-0.9,0.7
		c0,0.2,0,0.5,0.2,0.7C333.3,86.3,334.4,87,335.6,87z"></path>
    <path class="st0" d="M290.1,86.7c0.6-0.4,0.9-1,0.3-1.6c-1-0.9-2.4-1.4-3.7-1.3c-0.4-0.1-0.8,0.2-0.9,0.7c0,0.2,0,0.5,0.2,0.7
		c0.6,1.1,1.7,1.8,2.9,1.8C289.3,87.1,289.7,87,290.1,86.7z"></path>
    <path class="st0" d="M157.4,103.7c-1.2-4.4-1.5-9-2.2-13.5c-0.3-1.8-0.7-3.6-1.4-5.3c-0.2-0.8-0.8-1.3-1.6-1.4
		c-0.7,0-1.4,0.6-1.5,1.3c-0.3,0.6-0.5,1.2-0.7,1.8c-1,2.6-1.6,5.4-2.8,8c-0.2,0.7-0.8,1.3-1.6,1.4c-1,0.1-1.7,1.4-1.1,2
		c1.3,1.2,0.6,2.3,0,3.4c-0.5,1-0.9,2.1-1,3.3c-0.1,0.6,0.1,1.2,0.7,1.5c0.6,0.3,1.3,0.1,1.7-0.4c0.2-0.3,0.4-0.6,0.6-0.9
		c0.8-1.5,1.3-3.1,1.5-4.8c0-1.2,1-2.1,2.2-2.1c0.1,0,0.2,0,0.3,0c0.8,0,1.7,0.1,2.5,0c1.2-0.1,1.5,0.4,1.6,1.5
		c0.1,1.5,0.3,3,0.5,4.5c0,0.7,0.7,1.3,1.4,1.3c0.1,0,0.1,0,0.2,0c0.5,0,0.9-0.5,0.9-1c0-0.1,0-0.1,0-0.2
		C157.5,103.9,157.5,103.8,157.4,103.7z M152.4,95.4c-0.2,0-0.3,0-0.5,0c-2.5,0-2.5,0-1.7-2.4c0.4-1.2,0.8-2.4,1.2-3.6
		c-0.1-0.5,0.3-1.1,0.8-1.1c0.5-0.1,1.1,0.3,1.1,0.8c0,0.2,0,0.3,0,0.5c0.2,1.5,0.3,2.9,0.5,4.4C154.1,95.2,153.6,95.6,152.4,95.4z"></path>
    <path class="st0" d="M320.6,100.8c-1-0.5-1.6-1.4-1.7-2.4c-0.2-1.3-0.3-2.6-0.4-3.9c0-0.8-0.2-1.5-0.5-2.2s-1.1-1.3-1.6-0.9
		c-1.2,1.1-2,0.6-3-0.1c-0.2-0.1-0.4-0.1-0.5-0.1c-0.2,0-0.4,0-0.6,0c-3.5,1.2-6.6,3-8.7,6.2c-0.4,0.6-0.5,1.4-0.4,2.1
		c0.5,2.5,2.6,3.5,5,2.4c1.9-1,3.6-2.3,5.1-3.9c2-2.1,2.2-2,3,0.7c0.4,1.7,1.4,3.3,2.7,4.5c0.8,0.7,1.3,0.2,1.6-0.4
		S321.6,101.2,320.6,100.8z M311.4,97.2L311.4,97.2c-0.9,0.5-1.8,1-2.5,1.8c-0.4,0.3-0.8,0.6-1.3,0.8c-0.6,0.3-1.2,0.1-1.6-0.4
		c-0.3-0.5-0.2-1.1,0.3-1.5c1.3-1.5,2.9-2.8,4.7-3.6c0.9-0.4,1.4,0.2,1.4,1.5C312.5,96.3,312.1,97,311.4,97.2z"></path>
    <path class="st0" d="M237.3,100.2c-1.4-0.8-2.3-2.2-2.6-3.7c-0.6-2.4-0.9-4.8-0.9-7.2c0-1.7-0.7-3.2-1.9-4.4
		c-0.3-0.4-0.8-0.6-1.3-0.4c-0.4,0.3-0.6,0.8-0.4,1.2c0.1,1,0.4,1.9,0.4,2.8c0.2,3.2,0.6,2.5-2,4s-5.5,3.2-7.5,5.6
		c-0.5,0.5-0.8,1.2-0.9,1.9c0,1.1,0.8,2.1,1.9,2.4c1.1,0.3,2.2,0.2,3.3-0.2c2.3-0.9,4.2-2.5,5.4-4.7c0.2-0.5,0.6-0.8,1.1-0.8
		c0.5,0.1,1,0.5,1.1,1c0.3,1.1,0.9,2.1,1.5,3.1c0.7,0.9,1.9,1.1,2.9,0.5C237.9,101,238,100.6,237.3,100.2z M230.6,94.9L230.6,94.9
		c-1.8,2.2-3.3,4.7-6.2,5.7c-0.2,0.1-0.5,0.1-0.6,0.2c-0.5,0.1-0.9-0.2-1.1-0.6c-0.2-0.5,0-1,0.4-1.3c1.6-1.5,3.3-2.9,5.3-3.9
		c0.5-0.3,1-0.5,1.5-0.8c0.2-0.2,0.6-0.1,0.8,0.1C230.7,94.4,230.7,94.7,230.6,94.9z"></path>
    <path class="st0" d="M206.1,100.6c-0.7-0.3-1.2-1-1.4-1.7c-0.3-1-0.4-2.1-0.5-3.2c0-1.1-0.1-2.2-0.5-3.3c-0.3-0.8-1-1.6-1.6-1.1
		c-1.2,1-2,0.7-3-0.1c-0.2-0.1-0.5-0.1-0.7-0.1c-0.3,0-0.5,0.1-0.8,0.1c-3.2,1.2-6.2,2.8-8.2,5.8c-0.9,1.3-0.8,2.9,0.2,4.1
		c0.9,1.1,2.5,1.5,3.8,0.8c1.4-0.6,2.7-1.4,3.8-2.5c0.9-0.8,1.8-1.8,2.6-2.6c0.9-0.8,1.4-0.6,1.8,0.4c0.1,0.3,0.2,0.7,0.3,1
		c0.4,1.7,1.3,3.3,2.6,4.5c0.2,0.4,0.7,0.6,1.1,0.4c0.5-0.3,0.9-0.9,1-1.5C206.7,101.2,206.5,100.8,206.1,100.6z M197.2,97.1
		L197.2,97.1c-0.9,0.4-1.7,1-2.4,1.6c-0.4,0.4-0.9,0.7-1.4,0.9c-0.6,0.3-1.3,0.2-1.7-0.3c-0.3-0.5-0.2-1.2,0.3-1.6
		c1.2-1.3,2.6-2.4,4.1-3.2c1.4-0.8,1.9-0.4,1.9,1.3C198.1,96.4,197.8,97,197.2,97.1z"></path>
    <path class="st0" d="M282.7,90.4c-2-0.9-5-0.1-6,1.5c-0.2,0.3-0.3,0.6-0.3,1c0.6,2.5,0.8,5,0.4,7.6c-0.1,3.2,0.2,5.3,1.4,7.3
		c0.1,0.5,0.5,0.8,1,0.7c0.4-0.1,0.7-0.4,0.7-0.8c0.4-1,0.6-2.1,0.4-3.2c-0.3-1.1-0.4-2.3-0.4-3.4c-0.1-0.9,0.6-1.8,1.5-1.9
		c0,0,0,0,0.1,0c1.9-0.4,3.4-1.7,4-3.6C286,93.4,284.8,91.2,282.7,90.4z M283.1,95.8c-0.1,0.1-0.2,0.2-0.3,0.3l0,0
		c-0.2,0.2-0.4,0.3-0.6,0.4c-2.1,1.2-2.8,0.8-2.9-1.7c0-0.7-0.2-1.6,0.7-2c0.9-0.3,2-0.1,2.7,0.6C283.5,93.9,283.7,95,283.1,95.8z"></path>
    <path class="st0" d="M349,90.9c-0.6-1.4-1.8-1.8-2.9-0.8c-1.2,1-2.5,1.9-3.8,2.7c-1.5,0.9-2.5,2.5-2.6,4.3c0,2.3,1.3,4.4,3.5,5.2
		c1.9,0.8,4.1,0.2,5.4-1.5c1.9-2.3,2.7-4.9,1.3-7.8C349.6,92.4,349.3,91.7,349,90.9z M344.9,100.3L344.9,100.3
		c-1.7-0.3-2.8-2-2.5-3.7c0.1-0.5,0.3-1,0.7-1.4c1-1.2,1.8-1.4,3.3-0.8c0.2,0.1,0.5,0.1,0.7,0c1.5-1.1,1.4,0.4,1.7,1
		c0.1,0.3,0.1,0.6,0.1,0.9C348.8,98.8,346.9,100.7,344.9,100.3z"></path>
  </g>

</svg>
