<svg xmlns="http://www.w3.org/2000/svg" viewBox="0 0 110.52 80.68"><defs><style>.cls-1{fill:#75713e;}</style></defs><title>Asset 7</title><g id="Layer_2" data-name="Layer 2"><g id="Layer_1-2" data-name="Layer 1"><path class="cls-1" d="M109.87,28.7,99.7,27.26a23.94,23.94,0,0,1-2.49-.78c-.9-.32-1.81-.58-2.71-.9-1.23-.44-2.48-.79-3.71-1.23s-2.28-.83-3.41-1.25a26.6,26.6,0,0,1-4.54-1.91,7.08,7.08,0,0,1-3.3-6.37c0-.83.09-1.67.12-2.51.08-2.85-.24-5.69-.13-8.54A6.63,6.63,0,0,0,78.86.92a3.28,3.28,0,0,0-.68-.8C78-.09,77.8,0,77.69.19a5.75,5.75,0,0,0-.79,2.55c0,2.71-.13,5.43.07,8.15.17,2.32.32,4.66.31,7a6.66,6.66,0,0,1-.69,2.76,1,1,0,0,1-.39.4,2.22,2.22,0,0,1-.66.67,1.18,1.18,0,0,1-.41.39l-.39.27a3.19,3.19,0,0,0-.55.39h-.12a4,4,0,0,1-1.06.66c-1,.51-1.94,1.06-3,1.52a18.66,18.66,0,0,1-3.56,1.28c-.24.41-.69.3-1,.43-1.32.45-2.72.56-4.06.92-.51.14-1,.06-1.52.17a18.14,18.14,0,0,1-3,.48c-1.44.06-2.83.43-4.25.6-1.25.15-2.52.45-3.77.54-3.09.22-6.21-.2-9.31.31-.76.16-1.54,0-2.3.08-3.21.5-6.4,0-9.57-.29a9.63,9.63,0,0,0-3.95.7,6.51,6.51,0,0,1-2.46.65,5.85,5.85,0,0,0-.92.09c-1.93.16-3.85.4-5.78.47a21.91,21.91,0,0,1-5.48-.28,8,8,0,0,0-2.22.14c-2.2.16-4.34.72-6.54.9-.14,0-.27,0-.3.2a.34.34,0,0,0,.17.39,1,1,0,0,0,.44.13c.72.07,1.44.16,2.16.26,1.55.21,3.1.46,4.65.58,2.61.2,5.24.39,7.86.41,6.93.05,13.87,0,20.8,0h.31c2.39-.17,4.79-.35,7.2-.38.72,0,1.45,0,2.18,0a11.76,11.76,0,0,1,4.51.76,54.4,54.4,0,0,1,5.85,1.85,3.59,3.59,0,0,1,.46,0c2.26.76,4.53,1.48,6.73,2.41.31.13.86.06.93.6a2.54,2.54,0,0,1,1.29.4,26.54,26.54,0,0,1,3.62,2c.12,0,.28,0,.37.09.83.58,1.68,1.14,2.45,1.78a20.73,20.73,0,0,1,2.22,1.85c.18.08.27.34.53.27a.26.26,0,0,0,.2-.14,1.9,1.9,0,0,1,.36-.57.64.64,0,0,0,.08-.14,1.82,1.82,0,0,1,.38-.45,1.69,1.69,0,0,0,.3-.54c.51-.54.64-.51.92.13.13.3.18.61.28.92a6.47,6.47,0,0,1,.31,1.4c0,1,0,2,0,3a25.66,25.66,0,0,1-.39,4.79c-.35,2.79.09,5.57.13,8.36a7.65,7.65,0,0,1,.23,2.07c.08,2.29,0,4.57-.11,6.85a1.27,1.27,0,0,1-.12.51c-.06.52,0,1-.1,1.58-.25,1.33-.47,2.67-.7,4a12.64,12.64,0,0,0,.13,1.38,2.31,2.31,0,0,0,1.64,1.74c.6.21,1-.24,1.41-.53l.27-.2.4-.8a1.91,1.91,0,0,0,.25-.54l0-.25a28.38,28.38,0,0,1,.66-4c.13-.89.18-1.79.23-2.69.13-2.59.24-5.19.31-7.79.13-4.44,0-8.88,0-13.32a5,5,0,0,0-.25-2,2.29,2.29,0,0,1-.08-1.16,11.1,11.1,0,0,1,.44-1.46,1.66,1.66,0,0,0,.12-.31A8.75,8.75,0,0,1,82.8,44a6.66,6.66,0,0,1,1.71-2.06,8,8,0,0,0,.8-.73,2.54,2.54,0,0,1,.67-.47,6.48,6.48,0,0,1,3.11-1.28,16.06,16.06,0,0,1,3.83-1.19c1.23-.31,2.5-.5,3.72-.88a6.38,6.38,0,0,1,2-.64l.19-.07a2.42,2.42,0,0,1,.65-.27c.26,0,5.89-2.44,9.23-4.07C110.09,31.66,111.3,29.14,109.87,28.7ZM70.33,39.15a11.23,11.23,0,0,1-2.2-1.4,6.75,6.75,0,0,0-3.29-1.33,8.43,8.43,0,0,1-3.35-1,23.83,23.83,0,0,1-2.65-1.48,36.55,36.55,0,0,0,5.13.8.88.88,0,0,0,.6.24,23.25,23.25,0,0,1,4.81,1.15,4.61,4.61,0,0,1,2.44,2.4c.08.15.17.3.26.45A2.07,2.07,0,0,1,70.33,39.15Zm4.18-11a1.71,1.71,0,0,1-1.15.38c-1.48.16-2.23.23-2.27.07s1.19-.83,1.72-1a4.63,4.63,0,0,1,1.29-.31,5,5,0,0,1,.77,0A1.38,1.38,0,0,1,74.51,28.16Z"/></g></g></svg>