<svg xmlns="http://www.w3.org/2000/svg" viewBox="0 0 257.13 492.23">
  <defs>
    <style>.cls-1{fill:none;}.cls-2{fill:#807c46}</style>
  </defs>
  <title>Asset 1</title>
  <g id="Layer_2" data-name="Layer 2">
    <g id="Layer_1-2" data-name="Layer 1">
      <path class="cls-1"
            d="M129.92,264.64c-.57-.29-1.52-.34-3.85,1.05a23.33,23.33,0,0,0-7.7,7.7,29,29,0,0,0-4.9,13.3c-.3,3.71.29,7.19-.85,11.13a33.22,33.22,0,0,1-1.45,4.21c-.91,2-1.51,2.4-1.57,3.55-.09,1.72,1.07,3.95,2.45,4.2-.17-2.95,7.27-20.14,8-23.09.18-.69.67-2.25,4.55-7,4.18-5.12,5.57-5.69,6.29-8.4C131.62,268.82,131.48,265.45,129.92,264.64Z"/>
      <path class="cls-1"
            d="M95.72,251c-1.91-.31-3.74,2.31-4,2.69a8.09,8.09,0,0,0-1.24,5.84c.78,4.75,6,8.66,8.14,7.66,2.5-1.16.93-8.7.74-9.48C98.94,255.67,98,251.34,95.72,251Z"/>
      <path class="cls-2"
            d="M257,240.28a8.1,8.1,0,0,0-3.56-4.56c-1.87-1.06-2.6-.28-6.34-.77-4.11-.53-4.7.34-8.88,0a23.86,23.86,0,0,0-4.31,0c-11.15.76-67.93-1.58-76.1,0a34.1,34.1,0,0,1-4.82.5c-2.72.17-3.45,0-4.06-.25a6.19,6.19,0,0,1-3-3.81c-10-7.83-12.17-10.65-12.17-10.65-2.31-3-3.66-6.84-6.35-14.46-1.77-5-3-9.57-3.8-12.69-1.08-4.06-1.73-7-2-8.37-2.81-12.46-5.12-16.58-6.85-24.35s-.43-8-1-30.44c-.26-10.14-.48-8.39-1-22.58-.38-10.09-.91-24.11-.76-41.35.15-17.66.23-26.5.51-28.92,0,0,1.72-14.9-1-26.38-.71-2.47-1.85-6.1-4.9-8.14a16.91,16.91,0,0,0-4.31-1.78C99.8.51,98.68-.57,97.62.36a6.2,6.2,0,0,0-1.47,3.71c.89,4.77-1.68,9.13-2.79,25.12a240.35,240.35,0,0,0,.51,36c.58,6.16,1.43,12.18-.26,20.3-1,5-1.89,5.31-2.53,10.14-.81,6.1.35,7.15.5,18.52.08,6.12-.24,7.48.51,10.91,1,4.61,2.42,6.08,3.81,9.64,4.11,10.58,1,21.71-.76,28.16-.73,2.62-1,2.83-3.56,9.64-1.65,4.37-6.7,17.69-10.9,31.46-3.54,11.57-4.79,18-9.9,26.63-2.75,4.69-6,8.89-10.4,9.39-3.62.41-55.21.61-57.17,2-2.38,1.67-4.71,3.1-2,5.89,3.75,3.85,61.42.46,68.79,3.8,4.1,1.85,6.11,5.63,10.15,13.19,4.19,7.85,6,14.83,7.61,21.06,1.33,5.19.9,4.87,3.3,15.22,1.61,7,2.09,8.35,3.29,13.7a172.68,172.68,0,0,1,3.3,17c1.65,13.45-1.87,14-.76,28.42.78,10,2.59,11.19,2.28,20.29-.12,3.62-.56,7.88-1.26,14.71-.88,8.47-1.37,10.87-.51,15s1.82,4,3.3,9.64A58.45,58.45,0,0,1,102.51,432c.34,6.12-.58,8.14-.51,14.2,0,3.55.22,18.07,2,29.43.61,3.79,1.25,6.27.51,9.9-.59,2.9-1.62,4.41-.76,5.58,1.21,1.64,5.36,1.49,7.1-.51,1.53-1.75.91-4.58.77-5.33-1.46-7.46,4-12.7,2.79-75.6-.4-20.07-.73-36.87-2-54.54-.12-1.56-.24-3.1-.26-5.33-.06-8.06,1.27-16.86,10.4-39.32,5.57-13.7,5-10.22,10.4-23.59,5.23-12.92,5.49-15.47,9.39-19.28,3.52-3.43,8.49-6.43,7.87-9.89a5,5,0,0,0-2.29-3.3c-1.87-1-3.43.28-4.82-.76s-1.7-3.48-.76-4.57,2.79-.3,6.6,0,4.06-.32,8.11-.25l51.25.51c10.26-1.45,14.69-.72,16.23-.51,3.43.45,6.76-.7,7.62-.48,2,.53,2.33-.29,5.83.78,8.11,2.47,10,2.55,11.16,2.53,2.22,0,5.16-.08,6.6-2,.48-.65.66-1.13,1-4.07S257.28,241.21,257,240.28ZM98.62,267.16c-2.19,1-7.36-2.91-8.14-7.66a8.09,8.09,0,0,1,1.24-5.84c.26-.38,2.09-3,4-2.69,2.31.37,3.22,4.7,3.64,6.71C99.55,258.46,101.12,266,98.62,267.16Zm32.32,4.13c-.72,2.71-2.11,3.28-6.29,8.4-3.88,4.75-4.37,6.31-4.55,7-.78,2.95-8.22,20.14-8,23.09-1.38-.25-2.54-2.48-2.45-4.2.06-1.15.66-1.6,1.57-3.55a33.22,33.22,0,0,0,1.45-4.21c1.14-3.94.55-7.42.85-11.13a29,29,0,0,1,4.9-13.3,23.33,23.33,0,0,1,7.7-7.7c2.33-1.39,3.28-1.34,3.85-1.05C131.48,265.45,131.62,268.82,130.94,271.29Z"/>
    </g>
  </g>
</svg>
